<?xml version="1.0" encoding="UTF-8"?>
<!-- Generator: Adobe Illustrator 18.0.0, SVG Export Plug-In . SVG Version: 6.00 Build 0)  -->
<!DOCTYPE svg PUBLIC "-//W3C//DTD SVG 1.1//EN" "http://www.w3.org/Graphics/SVG/1.1/DTD/svg11.dtd">
<svg version="1.1" id="Layer_1" xmlns="http://www.w3.org/2000/svg" xmlns:xlink="http://www.w3.org/1999/xlink" x="0px" y="0px" viewBox="0 0 248 124" enable-background="new 0 0 248 124" xml:space="preserve">
<path fill="#58595B" d="M110.2,45.4c1.2,0.8,2.6,1.3,3.8,1.3c1.1,0,2-0.5,2-1.7c0-1.3-0.9-1.7-2.6-2.2c-1.8-0.5-4-1.2-4-4.3  c0-2.6,2-4.5,5-4.5c3.3,0,4.5,1.9,5,3.6l-2.9,0.8c-0.3-1-0.9-1.9-2.1-1.9c-1,0-1.7,0.5-1.7,1.5c0,1.2,1.1,1.6,2.6,2  c2.4,0.7,4,1.9,4,4.4c0,3-2.3,4.7-5.2,4.7c-2.3,0-4-0.8-4.7-1.2L110.2,45.4z"/>
<path fill="#58595B" d="M123.7,44.2c0.1,1.8,1.1,2.6,2.3,2.6c1,0,1.9-0.3,2.9-0.8l0.1,2.6c-0.8,0.4-2.1,0.8-3.4,0.8  c-4.1,0-5.2-2.7-5.2-5.8c0-3.9,2.1-5.5,4.6-5.5c2.9,0,4.2,1.9,4.2,5.2v1.1H123.7z M125.1,40.2c-1,0-1.4,0.9-1.4,2.2h2.7  C126.5,40.8,126,40.2,125.1,40.2z"/>
<path fill="#58595B" d="M137.9,38.6l-0.7,2.7c-0.3-0.3-0.7-0.4-1.2-0.4c-0.6,0-1.3,0.4-1.7,0.7v7.6h-3.1v-11h2.7l0.2,1.1  c0.5-0.6,1.2-1.3,2.4-1.3C137.1,37.9,137.6,38.2,137.9,38.6z"/>
<path fill="#58595B" d="M148.8,38.4l-3.2,10.7h-3.8l-3.4-10.7l3.3-0.3l1.4,5.8c0.2,0.9,0.4,1.9,0.6,2.8h0.1c0.1-0.9,0.3-1.9,0.5-2.7  l1.4-5.9L148.8,38.4z"/>
<path fill="#58595B" d="M151.7,33.5c1.1,0,1.8,0.6,1.8,1.7c0,1.2-0.8,1.7-1.8,1.7c-1,0-1.7-0.6-1.7-1.7  C150,34.1,150.7,33.5,151.7,33.5z M153.3,38.1v11h-3.1v-11H153.3z"/>
<path fill="#58595B" d="M163.4,46.1l0.2,2.5c-0.7,0.3-1.9,0.7-3.4,0.7c-4,0-5-3-5-5.7c0-2.9,1.1-5.7,4.8-5.7c2.4,0,3.6,1.4,3.9,3.2  l-2.6,0.8c-0.2-0.8-0.5-1.5-1.4-1.5c-1.2,0-1.6,1.5-1.6,3.1c0,2.1,0.6,3.4,2.3,3.4C161.7,46.8,162.6,46.5,163.4,46.1z"/>
<path fill="#58595B" d="M166.9,33.5c1.1,0,1.8,0.6,1.8,1.7c0,1.2-0.8,1.7-1.8,1.7c-1,0-1.7-0.6-1.7-1.7  C165.2,34.1,166,33.5,166.9,33.5z M168.5,38.1v11h-3.1v-11H168.5z"/>
<path fill="#58595B" d="M170.5,43.7c0-3.2,1.6-5.7,4.9-5.7c3.7,0,4.7,2.6,4.7,5.5c0,3-1.3,5.9-4.9,5.9  C171.6,49.4,170.5,46.5,170.5,43.7z M176.9,43.6c0-1.8-0.2-3.2-1.5-3.2c-1.4,0-1.7,1.6-1.7,3.3c0,2,0.3,3.3,1.6,3.3  C176.5,46.9,176.9,45.4,176.9,43.6z"/>
<path fill="#58595B" d="M121.4,54.8v14.7h-2.8l-3.8-6.7c-0.6-1-1.1-2-1.6-3.2c0,0,0,0,0,0c0.1,1.1,0.1,2.2,0.1,3.4v6.5h-3.1V54.8h3  l3.7,6.8c0.5,1,1.1,2.1,1.6,3c0,0,0,0,0,0c-0.1-1.1-0.2-2.2-0.2-3.2v-6.6H121.4z"/>
<path fill="#58595B" d="M124.4,58.9c0.7-0.2,2.2-0.6,3.5-0.6c2.2,0,3.8,0.5,4.3,2.8c0.1,0.6,0.2,1.3,0.2,2.1v3.5  c0,0.5,0.1,0.8,0.6,0.8c0.1,0,0.3,0,0.5-0.1l0.2,1.9c-0.6,0.2-1.4,0.4-1.9,0.4c-1,0-1.6-0.5-1.9-1.2c-0.6,0.6-1.7,1.2-3.1,1.2  c-2.3,0-3.3-1.5-3.3-3.5c0-2.5,1.4-3.8,4.2-3.8c0.6,0,1,0.1,1.7,0.2v-0.3c0-1.2-0.8-1.7-2-1.7c-1,0-1.9,0.2-2.6,0.5L124.4,58.9z   M129.5,64.5c-0.2-0.1-0.6-0.2-1.1-0.2c-1.1,0-1.7,0.5-1.7,1.7c0,0.9,0.4,1.5,1.2,1.5c0.6,0,1.3-0.4,1.6-0.8V64.5z"/>
<path fill="#58595B" d="M142.9,66.5l0.2,2.5c-0.7,0.3-1.9,0.7-3.4,0.7c-4,0-5-3-5-5.7c0-2.9,1.1-5.7,4.8-5.7c2.4,0,3.6,1.4,3.9,3.2  l-2.6,0.8c-0.2-0.8-0.5-1.5-1.4-1.5c-1.2,0-1.6,1.5-1.6,3.1c0,2.1,0.6,3.4,2.3,3.4C141.1,67.2,142.1,66.9,142.9,66.5z"/>
<path fill="#58595B" d="M146.4,53.9c1.1,0,1.8,0.6,1.8,1.7c0,1.2-0.8,1.7-1.8,1.7c-1,0-1.7-0.6-1.7-1.7  C144.7,54.5,145.4,53.9,146.4,53.9z M148,58.5v11h-3.1v-11H148z"/>
<path fill="#58595B" d="M149.9,64.1c0-3.2,1.6-5.7,4.9-5.7c3.7,0,4.7,2.6,4.7,5.5c0,3-1.3,5.9-4.9,5.9  C151,69.8,149.9,66.9,149.9,64.1z M156.3,64c0-1.8-0.2-3.2-1.5-3.2c-1.4,0-1.7,1.6-1.7,3.3c0,2,0.3,3.3,1.6,3.3  C156,67.3,156.3,65.8,156.3,64z"/>
<path fill="#58595B" d="M164.4,59.5c0.8-0.6,1.8-1.1,3.1-1.1c1.9,0,2.8,0.9,3.1,2.4c0.1,0.4,0.1,1,0.1,1.4v7.4h-3.1v-7  c0-0.2,0-0.5,0-0.7c-0.1-0.7-0.5-0.9-1.1-0.9c-0.7,0-1.4,0.4-1.8,0.7v7.9h-3.1v-11h2.8L164.4,59.5z"/>
<path fill="#58595B" d="M173.3,58.9c0.7-0.2,2.2-0.6,3.5-0.6c2.2,0,3.8,0.5,4.3,2.8c0.1,0.6,0.2,1.3,0.2,2.1v3.5  c0,0.5,0.1,0.8,0.6,0.8c0.1,0,0.3,0,0.5-0.1l0.2,1.9c-0.6,0.2-1.4,0.4-1.9,0.4c-1,0-1.6-0.5-1.9-1.2c-0.6,0.6-1.7,1.2-3.1,1.2  c-2.3,0-3.3-1.5-3.3-3.5c0-2.5,1.4-3.8,4.2-3.8c0.6,0,1,0.1,1.7,0.2v-0.3c0-1.2-0.8-1.7-2-1.7c-1,0-1.9,0.2-2.6,0.5L173.3,58.9z   M178.4,64.5c-0.2-0.1-0.6-0.2-1.1-0.2c-1.1,0-1.7,0.5-1.7,1.7c0,0.9,0.4,1.5,1.2,1.5c0.6,0,1.3-0.4,1.6-0.8V64.5z"/>
<path fill="#58595B" d="M184,54.8h3.1V66c0,0.9,0.3,1.2,0.9,1.2c0.4,0,0.7-0.1,1.3-0.3l0.4,2.4c-0.8,0.4-1.8,0.6-2.6,0.6  c-2.4,0-3.1-1.4-3.1-3.3V54.8z"/>
<path fill="#58595B" d="M200.3,54.8h3.1v14.7h-2.8l-0.1-0.9c-0.4,0.5-1.2,1.1-2.6,1.1c-2.3,0-4-1.8-4-5.6c0-2.9,1.3-5.7,4.2-5.7  c1,0,1.6,0.3,2.1,0.6V54.8z M200.3,61.2c-0.4-0.3-0.8-0.5-1.4-0.5c-0.9,0-1.8,0.6-1.8,3.5c0,2.1,0.6,3.2,1.7,3.2  c0.6,0,1-0.3,1.4-0.6V61.2z"/>
<path fill="#58595B" d="M208.5,64.6c0.1,1.8,1.1,2.6,2.3,2.6c1,0,1.9-0.3,2.9-0.8l0.1,2.6c-0.8,0.4-2.1,0.8-3.4,0.8  c-4.1,0-5.2-2.7-5.2-5.8c0-3.9,2.1-5.5,4.6-5.5c2.9,0,4.2,1.9,4.2,5.2v1.1H208.5z M209.9,60.6c-1,0-1.4,0.9-1.4,2.2h2.7  C211.3,61.2,210.8,60.6,209.9,60.6z"/>
<path fill="#58595B" d="M119.8,86.5l0.6,2.6c-1,0.5-2.5,1.1-4.5,1.1c-4.9,0-6.2-3.9-6.2-7.5c0-4,1.3-7.8,5.9-7.8  c3.7,0,4.8,2.1,5.1,4.1l-3,0.7c-0.3-1.4-0.9-2.3-2.1-2.3c-2.2,0-2.5,2.9-2.5,5c0,3.4,0.9,5.2,3.4,5.2  C117.6,87.6,118.7,87.2,119.8,86.5z"/>
<path fill="#58595B" d="M121.3,84.5c0-3.2,1.6-5.7,4.9-5.7c3.7,0,4.7,2.6,4.7,5.5c0,3-1.3,5.9-4.9,5.9  C122.4,90.2,121.3,87.3,121.3,84.5z M127.7,84.4c0-1.8-0.2-3.2-1.5-3.2c-1.4,0-1.7,1.6-1.7,3.3c0,2,0.3,3.3,1.6,3.3  C127.3,87.8,127.7,86.3,127.7,84.4z"/>
<path fill="#58595B" d="M135.7,79.9c0.8-0.6,1.8-1.1,3.1-1.1c1.9,0,2.8,0.9,3.1,2.4c0.1,0.4,0.1,1,0.1,1.4v7.4h-3.1v-7  c0-0.2,0-0.5,0-0.7c-0.1-0.7-0.5-0.9-1.1-0.9c-0.7,0-1.4,0.4-1.8,0.7v7.9h-3.1V79h2.8L135.7,79.9z"/>
<path fill="#58595B" d="M147.8,81.2v5.1c0,0.7,0.1,1.4,1,1.4c0.4,0,0.8-0.1,1.3-0.3l0.4,2.4c-0.7,0.3-1.8,0.6-2.7,0.6  c-2.3,0-3.1-1.3-3.1-3.2v-5.9h-1.4V79h1.4v-1.8l3.1-1.5V79h2.3v2.2H147.8z"/>
<path fill="#58595B" d="M158.7,79.4l-0.7,2.7c-0.3-0.3-0.7-0.4-1.2-0.4c-0.6,0-1.3,0.4-1.7,0.7v7.6H152V79h2.7l0.2,1.1  c0.5-0.6,1.2-1.3,2.4-1.3C157.9,78.8,158.3,79.1,158.7,79.4z"/>
<path fill="#58595B" d="M159.6,79.4c0.7-0.2,2.2-0.6,3.5-0.6c2.2,0,3.8,0.5,4.3,2.8c0.1,0.6,0.2,1.3,0.2,2.1v3.5  c0,0.5,0.1,0.8,0.6,0.8c0.1,0,0.3,0,0.5-0.1l0.2,1.9c-0.6,0.2-1.4,0.4-1.9,0.4c-1,0-1.6-0.5-1.9-1.2c-0.6,0.6-1.7,1.2-3.1,1.2  c-2.3,0-3.3-1.5-3.3-3.5c0-2.5,1.4-3.8,4.2-3.8c0.6,0,1,0.1,1.7,0.2v-0.3c0-1.2-0.8-1.7-2-1.7c-1,0-1.9,0.2-2.6,0.5L159.6,79.4z   M164.6,84.9c-0.2-0.1-0.6-0.2-1.1-0.2c-1.1,0-1.7,0.5-1.7,1.7c0,0.9,0.4,1.5,1.2,1.5c0.6,0,1.3-0.4,1.6-0.8V84.9z"/>
<path fill="#58595B" d="M173.5,81.2v5.1c0,0.7,0.1,1.4,1,1.4c0.4,0,0.8-0.1,1.3-0.3l0.4,2.4c-0.7,0.3-1.8,0.6-2.7,0.6  c-2.3,0-3.1-1.3-3.1-3.2v-5.9H169V79h1.4v-1.8l3.1-1.5V79h2.3v2.2H173.5z"/>
<path fill="#58595B" d="M177.9,79.4c0.7-0.2,2.2-0.6,3.5-0.6c2.2,0,3.8,0.5,4.3,2.8c0.1,0.6,0.2,1.3,0.2,2.1v3.5  c0,0.5,0.1,0.8,0.6,0.8c0.1,0,0.3,0,0.5-0.1l0.2,1.9c-0.6,0.2-1.4,0.4-1.9,0.4c-1,0-1.6-0.5-1.9-1.2c-0.6,0.6-1.7,1.2-3.1,1.2  c-2.3,0-3.3-1.5-3.3-3.5c0-2.5,1.4-3.8,4.2-3.8c0.6,0,1,0.1,1.7,0.2v-0.3c0-1.2-0.8-1.7-2-1.7c-1,0-1.9,0.2-2.6,0.5L177.9,79.4z   M183,84.9c-0.2-0.1-0.6-0.2-1.1-0.2c-1.1,0-1.7,0.5-1.7,1.7c0,0.9,0.4,1.5,1.2,1.5c0.6,0,1.3-0.4,1.6-0.8V84.9z"/>
<path fill="#58595B" d="M196.4,86.9l0.2,2.5c-0.7,0.3-1.9,0.7-3.4,0.7c-4,0-5-3-5-5.7c0-2.9,1.1-5.7,4.8-5.7c2.4,0,3.6,1.4,3.9,3.2  l-2.6,0.8c-0.2-0.8-0.5-1.5-1.4-1.5c-1.2,0-1.6,1.5-1.6,3.1c0,2.1,0.6,3.4,2.3,3.4C194.6,87.6,195.6,87.3,196.4,86.9z"/>
<path fill="#58595B" d="M199.9,74.4c1.1,0,1.8,0.6,1.8,1.7c0,1.2-0.8,1.7-1.8,1.7c-1,0-1.7-0.6-1.7-1.7  C198.2,74.9,198.9,74.4,199.9,74.4z M201.5,79v11h-3.1V79H201.5z"/>
<path fill="#58595B" d="M203.4,84.5c0-3.2,1.6-5.7,4.9-5.7c3.7,0,4.7,2.6,4.7,5.5c0,3-1.3,5.9-4.9,5.9  C204.5,90.2,203.4,87.3,203.4,84.5z M209.8,84.4c0-1.8-0.2-3.2-1.5-3.2c-1.4,0-1.7,1.6-1.7,3.3c0,2,0.3,3.3,1.6,3.3  C209.5,87.8,209.8,86.3,209.8,84.4z"/>
<path fill="#58595B" d="M217.9,79.9c0.8-0.6,1.8-1.1,3.1-1.1c1.9,0,2.8,0.9,3.1,2.4c0.1,0.4,0.1,1,0.1,1.4v7.4H221v-7  c0-0.2,0-0.5,0-0.7c-0.1-0.7-0.5-0.9-1.1-0.9c-0.7,0-1.4,0.4-1.8,0.7v7.9H215V79h2.8L217.9,79.9z"/>
<path fill="#58595B" d="M229.2,85c0.1,1.8,1.1,2.6,2.3,2.6c1,0,1.9-0.3,2.9-0.8l0.1,2.6c-0.8,0.4-2.1,0.8-3.4,0.8  c-4.1,0-5.2-2.7-5.2-5.8c0-3.9,2.1-5.5,4.6-5.5c2.9,0,4.2,1.9,4.2,5.2V85H229.2z M230.7,81c-1,0-1.4,0.9-1.4,2.2h2.7  C232,81.7,231.5,81,230.7,81z"/>
<path fill="#58595B" d="M236.8,86.7c0.9,0.6,2.1,1.1,3.2,1.1c0.9,0,1.3-0.3,1.3-0.9c0-0.9-0.9-1.1-2.1-1.5c-1.6-0.4-3-1.1-3-3.2  c0-2.2,1.7-3.4,4.1-3.4c2.7,0,3.8,1.4,4.1,2.5l-2.3,0.9c-0.4-0.8-1-1.2-1.8-1.2c-0.7,0-1.1,0.3-1.1,0.9c0,0.8,0.9,1,1.9,1.3  c1.6,0.5,3.2,1,3.2,3.4c0,2.3-1.9,3.6-4.3,3.6c-1.7,0-3.4-0.6-4-1.1L236.8,86.7z"/>
<linearGradient id="SVGID_1_" gradientUnits="userSpaceOnUse" x1="4.4732" y1="87.4553" x2="92.5135" y2="36.6252">
	<stop offset="0" style="stop-color:#232960"/>
	<stop offset="0.1457" style="stop-color:#592B53"/>
	<stop offset="0.2915" style="stop-color:#862D48"/>
	<stop offset="0.4371" style="stop-color:#AC2E3F"/>
	<stop offset="0.5814" style="stop-color:#C93038"/>
	<stop offset="0.7241" style="stop-color:#DD3033"/>
	<stop offset="0.8646" style="stop-color:#EA3130"/>
	<stop offset="1" style="stop-color:#EE312F"/>
</linearGradient>
<path fill="url(#SVGID_1_)" d="M43.6,116.3c0-2.7,2.2-4.9,4.9-4.9c2.7,0,4.9,2.2,4.9,4.9c0,2.7-2.2,4.9-4.9,4.9  C45.8,121.2,43.6,119,43.6,116.3z M27.2,103.1c2.7,0,4.9-2.2,4.9-4.9c0-2.7-2.2-4.9-4.9-4.9s-4.9,2.2-4.9,4.9  C22.3,100.9,24.5,103.1,27.2,103.1z M5.9,85c2.7,0,4.9-2.2,4.9-4.9c0-2.7-2.2-4.9-4.9-4.9S1,77.4,1,80.1C1,82.8,3.2,85,5.9,85z   M5.9,39C3.2,39,1,41.3,1,44c0,2.7,2.2,4.9,4.9,4.9s4.9-2.2,4.9-4.9C10.8,41.3,8.6,39,5.9,39z M27.2,57.1c-2.7,0-4.9,2.2-4.9,4.9  c0,2.7,2.2,4.9,4.9,4.9s4.9-2.2,4.9-4.9C32.1,59.3,29.9,57.1,27.2,57.1z M48.5,75.2c-2.7,0-4.9,2.2-4.9,4.9c0,2.7,2.2,4.9,4.9,4.9  c2.7,0,4.9-2.2,4.9-4.9C53.4,77.4,51.2,75.2,48.5,75.2z M69.8,103.1c2.7,0,4.9-2.2,4.9-4.9c0-2.7-2.2-4.9-4.9-4.9s-4.9,2.2-4.9,4.9  C64.9,100.9,67.1,103.1,69.8,103.1z M91.1,85c2.7,0,4.9-2.2,4.9-4.9c0-2.7-2.2-4.9-4.9-4.9c-2.7,0-4.9,2.2-4.9,4.9  C86.1,82.8,88.4,85,91.1,85z M69.8,57.1c-2.7,0-4.9,2.2-4.9,4.9c0,2.7,2.2,4.9,4.9,4.9s4.9-2.2,4.9-4.9  C74.7,59.3,72.5,57.1,69.8,57.1z M48.5,39c-2.7,0-4.9,2.2-4.9,4.9c0,2.7,2.2,4.9,4.9,4.9s4.9-2.2,4.9-4.9C53.4,41.3,51.2,39,48.5,39  z M27.2,21c-2.7,0-4.9,2.2-4.9,4.9c0,2.7,2.2,4.9,4.9,4.9s4.9-2.2,4.9-4.9C32.1,23.2,29.9,21,27.2,21z M48.5,2.9  c-2.7,0-4.9,2.2-4.9,4.9c0,2.7,2.2,4.9,4.9,4.9s4.9-2.2,4.9-4.9C53.4,5.1,51.2,2.9,48.5,2.9z M69.8,21c-2.7,0-4.9,2.2-4.9,4.9  c0,2.7,2.2,4.9,4.9,4.9s4.9-2.2,4.9-4.9C74.7,23.2,72.5,21,69.8,21z M91.1,39c-2.7,0-4.9,2.2-4.9,4.9c0,2.7,2.2,4.9,4.9,4.9  c2.7,0,4.9-2.2,4.9-4.9C96,41.3,93.8,39,91.1,39z"/>
<path fill="#A7A9AC" d="M31.1,30.8l12,10.2c0.4-0.7,0.9-1.3,1.6-1.9l-12-10.2C32.3,29.7,31.7,30.3,31.1,30.8z"/>
<path fill="#A7A9AC" d="M48.5,37.7c0.4,0,0.8,0,1.2,0.1V14c-0.4,0.1-0.8,0.1-1.2,0.1c-0.4,0-0.8,0-1.2-0.1v23.9  C47.7,37.8,48.1,37.7,48.5,37.7z"/>
<path fill="#A7A9AC" d="M28.4,92V68.2c-0.4,0.1-0.8,0.1-1.2,0.1c-0.4,0-0.8,0-1.2-0.1V92c0.4-0.1,0.8-0.1,1.2-0.1  C27.6,91.9,28,92,28.4,92z"/>
<path fill="#A7A9AC" d="M52.4,12.7l12,10.2c0.4-0.7,0.9-1.3,1.6-1.9l-12-10.2C53.5,11.6,53,12.2,52.4,12.7z"/>
<path fill="#A7A9AC" d="M73.7,30.8l12,10.2c0.4-0.7,0.9-1.3,1.6-1.9l-12-10.2C74.8,29.7,74.3,30.3,73.7,30.8z"/>
<path fill="#A7A9AC" d="M44.6,75.2l-12-10.2c-0.4,0.7-0.9,1.3-1.6,1.9l12,10.2C43.5,76.4,44,75.7,44.6,75.2z"/>
<path fill="#A7A9AC" d="M27.2,55.8c0.4,0,0.8,0,1.2,0.1V32c-0.4,0.1-0.8,0.1-1.2,0.1c-0.4,0-0.8,0-1.2-0.1v23.9  C26.4,55.8,26.8,55.8,27.2,55.8z"/>
<path fill="#A7A9AC" d="M52.4,48.9l12,10.2c0.4-0.7,0.9-1.3,1.6-1.9L53.9,47C53.5,47.7,53,48.4,52.4,48.9z"/>
<path fill="#A7A9AC" d="M71,55.9V32c-0.4,0.1-0.8,0.1-1.2,0.1c-0.4,0-0.8,0-1.2-0.1v23.9c0.4-0.1,0.8-0.1,1.2-0.1  C70.2,55.8,70.6,55.8,71,55.9z"/>
<path fill="#A7A9AC" d="M9.8,48.9l12,10.2c0.4-0.7,0.9-1.3,1.6-1.9L11.4,47C11,47.7,10.4,48.4,9.8,48.9z"/>
<path fill="#A7A9AC" d="M87.2,75.2l-12-10.2c-0.4,0.7-0.9,1.3-1.6,1.9l12,10.2C86,76.4,86.6,75.7,87.2,75.2z"/>
<path fill="#A7A9AC" d="M5.9,73.9c0.4,0,0.8,0,1.2,0.1V50.1c-0.4,0.1-0.8,0.1-1.2,0.1c-0.4,0-0.8,0-1.2-0.1V74  C5.1,73.9,5.5,73.9,5.9,73.9z"/>
<path fill="#A7A9AC" d="M69.8,68.3c-0.4,0-0.8,0-1.2-0.1V92c0.4-0.1,0.8-0.1,1.2-0.1c0.4,0,0.8,0,1.2,0.1V68.2  C70.6,68.3,70.2,68.3,69.8,68.3z"/>
<path fill="#A7A9AC" d="M91.1,50.2c-0.4,0-0.8,0-1.2-0.1V74c0.4-0.1,0.8-0.1,1.2-0.1c0.4,0,0.8,0,1.2,0.1V50.1  C91.9,50.2,91.5,50.2,91.1,50.2z"/>
<path fill="#A7A9AC" d="M23.3,93.3l-12-10.2c-0.4,0.7-0.9,1.3-1.6,1.9l12,10.2C22.2,94.4,22.7,93.8,23.3,93.3z"/>
<path fill="#A7A9AC" d="M65.9,93.3l-12-10.2c-0.4,0.7-0.9,1.3-1.6,1.9l12,10.2C64.7,94.4,65.3,93.8,65.9,93.3z"/>
<path fill="#A7A9AC" d="M49.7,74V50.1c-0.4,0.1-0.8,0.1-1.2,0.1c-0.4,0-0.8,0-1.2-0.1V74c0.4-0.1,0.8-0.1,1.2-0.1  C48.9,73.9,49.3,73.9,49.7,74z"/>
<g>
	<path fill="#A7A9AC" d="M48.5,110c0.4,0,0.8,0,1.2,0.1V86.3c-0.4,0.1-0.8,0.1-1.2,0.1c-0.4,0-0.8,0-1.2-0.1v23.9   C47.7,110,48.1,110,48.5,110z"/>
	<path fill="#A7A9AC" d="M44.6,111.4l-12-10.2c-0.4,0.7-0.9,1.3-1.6,1.9l12,10.2C43.5,112.5,44,111.9,44.6,111.4z"/>
</g>
</svg>